<svg width="343" height="319" viewBox="0 0 343 319" fill="none" xmlns="http://www.w3.org/2000/svg">
<rect width="343" height="319" fill="#373737"/>
<g id="ufo 1">
<g id="ufo-middle-leg">
<g id="Group">
<path id="Vector" d="M171.5 227.722C166.963 227.722 162.447 227.671 157.96 227.577V245.92C157.96 252.873 164.022 258.512 171.5 258.512C178.978 258.512 185.04 252.874 185.04 245.92V227.577C180.553 227.671 176.037 227.722 171.5 227.722Z" fill="white"/>
</g>
</g>
<g id="ufo-left-leg">
<g id="Group_2">
<path id="Vector_2" d="M82.2812 221.015L74.4752 241.761C72.0059 248.325 75.7253 255.509 82.7829 257.806C84.2621 258.287 85.7708 258.516 87.2547 258.516C92.8485 258.516 98.0819 255.267 100.034 250.079L109.612 224.623C100.169 223.642 91.0297 222.436 82.2812 221.015Z" fill="white"/>
</g>
</g>
<g id="ufo-right-leg">
<g id="Group_3">
<path id="Vector_3" d="M268.525 241.76L260.72 221.014C251.971 222.435 242.831 223.641 233.388 224.622L242.966 250.079C244.918 255.267 250.152 258.515 255.745 258.515C257.229 258.515 258.738 258.287 260.217 257.805C267.275 255.508 270.994 248.324 268.525 241.76Z" fill="white"/>
</g>
</g>
<g id="ufo-body">
<g id="Group_4">
<path id="Vector_4" d="M266.68 101.481C269.134 109.524 270.408 117.932 270.408 126.523C270.408 136.472 264.11 145.488 254.337 149.532C252.824 150.157 216.779 164.861 172.321 164.861C127.863 164.861 91.8175 150.157 90.3055 149.532C80.532 145.488 74.234 136.47 74.234 126.523C74.234 117.811 75.5444 109.289 78.0667 101.145C41.9451 107.886 0 121.419 0 147.906C0 165.76 18.8677 179.835 56.0805 189.738C66.757 192.58 78.6173 194.982 91.3505 196.91C100.118 198.237 109.304 199.339 118.8 200.206C131.381 201.356 144.51 202.091 157.961 202.387C162.443 202.485 166.957 202.539 171.501 202.539C176.044 202.539 180.559 202.486 185.04 202.387C198.49 202.091 211.62 201.355 224.201 200.206C233.698 199.339 242.883 198.239 251.65 196.91C264.385 194.982 276.245 192.58 286.922 189.738C324.132 179.835 343 165.76 343 147.906C343 121.797 302.087 108.285 266.68 101.481Z" fill="#0635DC"/>
</g>
</g>
<g id="ufo-top">
<g id="Group_5">
<path id="Vector_5" d="M236.535 98.318C234.577 94.4701 232.232 90.8265 229.545 87.4303C226.778 83.9363 223.657 80.7008 220.221 77.7781C207.593 67.0392 190.782 60.4848 172.323 60.4848C153.934 60.4848 137.178 66.985 124.567 77.6503C121.134 80.5531 118.012 83.7693 115.245 87.2428C112.543 90.6315 110.183 94.2689 108.21 98.1124C103.792 106.719 101.314 116.351 101.314 126.523C101.314 126.523 133.106 139.677 172.323 139.677C211.539 139.677 243.33 126.523 243.33 126.523C243.33 116.431 240.887 106.873 236.535 98.318Z" fill="#E11010"/>
</g>
</g>
</g>
</svg>
